#tb 0: 1/15
#tb 1: 1/44100
0,          0,          0,        1,   161280, 0x7041748d
1,          0,          0,     2709,    10836, 0x2a531236
1,       2709,       2709,     2709,    10836, 0xc58f45af
0,          1,          1,        1,   161280, 0x3cc4dfb5
1,       5418,       5418,     2709,    10836, 0x436cf135
0,          2,          2,        1,   161280, 0xca3af22d
1,       8127,       8127,     2709,    10836, 0x3a6022cc
0,          3,          3,        1,   161280, 0x23ad1d85
1,      10836,      10836,     2709,    10836, 0x57e83a4a
0,          4,          4,        1,   161280, 0x9c9cf364
1,      13545,      13545,     2709,    10836, 0xca4b3a1b
0,          5,          5,        1,   161280, 0x1551d6a8
1,      16254,      16254,     2709,    10836, 0xc3da7536
0,          6,          6,        1,   161280, 0xc39f6b95
1,      18963,      18963,     2709,    10836, 0x8c57d47b
0,          7,          7,        1,   161280, 0x3b036dcc
1,      21672,      21672,     2709,    10836, 0x9a79572b
0,          8,          8,        1,   161280, 0xa6fac1db
1,      24381,      24381,     2709,    10836, 0x7dbd6fd3
0,          9,          9,        1,   161280, 0x67656b62
1,      27090,      27090,     2709,    10836, 0x4454fdde
0,         10,         10,        1,   161280, 0xb41f47d1
1,      29799,      29799,     2709,    10836, 0x68aae686
0,         11,         11,        1,   161280, 0xc207249e
1,      32508,      32508,     2709,    10836, 0x61f2df35
1,      35217,      35217,     2709,    10836, 0xe36883c6
0,         12,         12,        1,   161280, 0xbee8f843
1,      37926,      37926,     2709,    10836, 0xefa62217
0,         13,         13,        1,   161280, 0x092acf46
1,      40635,      40635,     2709,    10836, 0x63b92479
0,         14,         14,        1,   161280, 0x8d9e2680
1,      43344,      43344,     2709,    10836, 0xaf452579
0,         15,         15,        1,   161280, 0x8becc20c
1,      46053,      46053,     2709,    10836, 0xdbb10001
0,         16,         16,        1,   161280, 0x655e444e
1,      48762,      48762,     2709,    10836, 0xafb7f7a7
0,         17,         17,        1,   161280, 0x5c112da0
1,      51471,      51471,     2709,    10836, 0xd4b1e591
0,         18,         18,        1,   161280, 0x232fa9eb
1,      54180,      54180,     2709,    10836, 0x4d44b3bb
0,         19,         19,        1,   161280, 0x9721745d
1,      56889,      56889,     2709,    10836, 0xff2ea5b3
0,         20,         20,        1,   161280, 0x92f1d880
1,      59598,      59598,     2709,    10836, 0x214e88ad
0,         21,         21,        1,   161280, 0x16233978
1,      62307,      62307,     2709,    10836, 0xde8bfc9a
0,         22,         22,        1,   161280, 0x19a27e69
1,      65016,      65016,     2709,    10836, 0xb3cc4b6a
0,         23,         23,        1,   161280, 0x7b6ad73a
1,      67725,      67725,     2709,    10836, 0x670bce40
1,      70434,      70434,     2709,    10836, 0xc17d31b2
0,         24,         24,        1,   161280, 0xa7a674aa
1,      73143,      73143,     2709,    10836, 0x7bcb9392
0,         25,         25,        1,   161280, 0x4e434abb
1,      75852,      75852,     2709,    10836, 0x230e28c9
0,         26,         26,        1,   161280, 0xb96eea14
1,      78561,      78561,     2709,    10836, 0x42df4204
0,         27,         27,        1,   161280, 0x1350188c
1,      81270,      81270,     2709,    10836, 0xfa9134b9
0,         28,         28,        1,   161280, 0x79c6f305
1,      83979,      83979,     2709,    10836, 0x418c1844
0,         29,         29,        1,   161280, 0xa9c7782d
1,      86688,      86688,     2709,    10836, 0x93ba66b6
0,         30,         30,        1,   161280, 0x40a4f456
1,      89397,      89397,     2709,    10836, 0x264a4ffa
0,         31,         31,        1,   161280, 0xaf291ed6
1,      92106,      92106,     2709,    10836, 0x82c78a8e
0,         32,         32,        1,   161280, 0xab29b4e1
1,      94815,      94815,     2709,    10836, 0x10d22fdc
0,         33,         33,        1,   161280, 0xbfcd2712
1,      97524,      97524,     2709,    10836, 0x2d25906b
0,         34,         34,        1,   161280, 0xff22a0d7
1,     100233,     100233,     2709,    10836, 0xa8a111fb
0,         35,         35,        1,   161280, 0xb0ae88a9
1,     102942,     102942,     2709,    10836, 0xbd95df87
1,     105651,     105651,     2709,    10836, 0x500ddec0
0,         36,         36,        1,   161280, 0x811d1259
1,     108360,     108360,     2709,    10836, 0x95d9350b
0,         37,         37,        1,   161280, 0x593c39a1
1,     111069,     111069,     2709,    10836, 0xfa54ea1f
0,         38,         38,        1,   161280, 0x5a5a97f8
1,     113778,     113778,     2709,    10836, 0x51b2467e
0,         39,         39,        1,   161280, 0xa5639ecf
1,     116487,     116487,     2709,    10836, 0x5d772af9
0,         40,         40,        1,   161280, 0x543920c6
1,     119196,     119196,     2709,    10836, 0xae25dd8d
0,         41,         41,        1,   161280, 0xb41689ee
1,     121905,     121905,     2709,    10836, 0xe4bd0cb0
0,         42,         42,        1,   161280, 0xc0ad83de
1,     124614,     124614,     2709,    10836, 0xb33544f0
0,         43,         43,        1,   161280, 0x9e9e7456
1,     127323,     127323,     2709,    10836, 0xd5658b12
0,         44,         44,        1,   161280, 0x777ccbfe
1,     130032,     130032,     2709,    10836, 0xeff66e5d
0,         45,         45,        1,   161280, 0x9c2df916
1,     132741,     132741,     2709,    10836, 0xb1fff6c5
0,         46,         46,        1,   161280, 0xe0c13b35
1,     135450,     135450,     2709,    10836, 0x84db56b5
1,     138159,     138159,     2709,    10836, 0x0230e3c9
0,         47,         47,        1,   161280, 0x39bfa5a5
1,     140868,     140868,     2709,    10836, 0xe58a7faf
0,         48,         48,        1,   161280, 0x35dfb264
1,     143577,     143577,     2709,    10836, 0xc4003e2a
0,         49,         49,        1,   161280, 0x43018613
1,     146286,     146286,     2709,    10836, 0x6360cbbf
0,         50,         50,        1,   161280, 0x43584b8a
1,     148995,     148995,     2709,    10836, 0xc29c2a05
0,         51,         51,        1,   161280, 0xa5cd230a
1,     151704,     151704,     2709,    10836, 0xb294dd11
0,         52,         52,        1,   161280, 0x6fe2cfb3
1,     154413,     154413,     2709,    10836, 0x4388b43b
0,         53,         53,        1,   161280, 0x88a7c0db
1,     157122,     157122,     2709,    10836, 0xdd7be367
0,         54,         54,        1,   161280, 0x476f1cd2
1,     159831,     159831,     2709,    10836, 0xb9f612a9
0,         55,         55,        1,   161280, 0x96401d49
1,     162540,     162540,     2709,    10836, 0xb64a39fe
0,         56,         56,        1,   161280, 0x7d932919
1,     165249,     165249,     2709,    10836, 0x6eba6594
0,         57,         57,        1,   161280, 0x06465481
1,     167958,     167958,     2709,    10836, 0xb4af35c1
0,         58,         58,        1,   161280, 0x39631520
1,     170667,     170667,     2709,    10836, 0x4e581c49
1,     173376,     173376,     2709,    10836, 0xb062a19f
0,         59,         59,        1,   161280, 0xc3fff780
1,     176085,     176085,     2709,    10836, 0x87cd6135
0,         60,         60,        1,   161280, 0xa81faf28
1,     178794,     178794,     2709,    10836, 0x37bffbd6
0,         61,         61,        1,   161280, 0x7a311f4f
1,     181503,     181503,     2709,    10836, 0x6c797900
0,         62,         62,        1,   161280, 0x52f9b931
1,     184212,     184212,     2709,    10836, 0x1615df36
0,         63,         63,        1,   161280, 0x938cf016
1,     186921,     186921,     2709,    10836, 0xb472d9e9
0,         64,         64,        1,   161280, 0xf8f6e19c
1,     189630,     189630,     2709,    10836, 0xdfff626e
0,         65,         65,        1,   161280, 0xca90561b
1,     192339,     192339,     2709,    10836, 0xffa6d771
0,         66,         66,        1,   161280, 0x8594d06b
1,     195048,     195048,     2709,    10836, 0xa7f3cf96
0,         67,         67,        1,   161280, 0xea32bf3b
1,     197757,     197757,     2709,    10836, 0xf556b50a
0,         68,         68,        1,   161280, 0x4646111a
1,     200466,     200466,     2709,    10836, 0x99b86b39
0,         69,         69,        1,   161280, 0xee891162
1,     203175,     203175,     2709,    10836, 0x886920d3
0,         70,         70,        1,   161280, 0xcfc32082
1,     205884,     205884,     2709,    10836, 0xefb0305a
1,     208593,     208593,     2709,    10836, 0x4ab7aa32
0,         71,         71,        1,   161280, 0x863c281a
1,     211302,     211302,     2709,    10836, 0x7f106530
0,         72,         72,        1,   161280, 0x01b591aa
1,     214011,     214011,     2709,    10836, 0x6461559a
0,         73,         73,        1,   161280, 0x211fbc62
1,     216720,     216720,     2709,    10836, 0x25e3b12b
0,         74,         74,        1,   161280, 0xae2bafe2
1,     219429,     219429,     2709,    10836, 0x32cfa3ba
0,         75,         75,        1,   161280, 0xcfe46dca
1,     222138,     222138,     2709,    10836, 0x0bff78a4
0,         76,         76,        1,   161280, 0xcf8fe8a3
1,     224847,     224847,     2709,    10836, 0xe4323d53
0,         77,         77,        1,   161280, 0x3f8474eb
1,     227556,     227556,     2709,    10836, 0x70b35196
0,         78,         78,        1,   161280, 0x06da345a
1,     230265,     230265,     2709,    10836, 0xf2b8b07f
0,         79,         79,        1,   161280, 0xbd4d3280
1,     232974,     232974,     2709,    10836, 0x826cc972
0,         80,         80,        1,   161280, 0xb5e70fea
1,     235683,     235683,     2709,    10836, 0x8a0fdce8
0,         81,         81,        1,   161280, 0x0c99c804
1,     238392,     238392,     2709,    10836, 0xa072a503
0,         82,         82,        1,   161280, 0x19841ed4
1,     241101,     241101,     2709,    10836, 0xd698d8e7
1,     243810,     243810,     2709,    10836, 0xfe80e794
0,         83,         83,        1,   161280, 0xf81dea50
1,     246519,     246519,     2709,    10836, 0xdd580a5a
0,         84,         84,        1,   161280, 0x7777d81c
1,     249228,     249228,     2709,    10836, 0x121bc1bb
0,         85,         85,        1,   161280, 0x0497cfd8
1,     251937,     251937,     2709,    10836, 0x8cebd7d9
0,         86,         86,        1,   161280, 0x50b6eb64
1,     254646,     254646,     2709,    10836, 0x6eaef4d7
0,         87,         87,        1,   161280, 0x5071fc07
1,     257355,     257355,     2709,    10836, 0x8f0b5d0b
0,         88,         88,        1,   161280, 0xbb7527fb
1,     260064,     260064,     2709,    10836, 0x40ccf61f
0,         89,         89,        1,   161280, 0x13054f1f
1,     262773,     262773,     2709,    10836, 0xb6db5f1d
0,         90,         90,        1,   161280, 0x4b78fb27
1,     265482,     265482,     2709,    10836, 0xa089f250
0,         91,         91,        1,   161280, 0xf504968f
1,     268191,     268191,     2709,    10836, 0xd3512f2b
0,         92,         92,        1,   161280, 0x555b10b7
1,     270900,     270900,     2709,    10836, 0xfa127f74
0,         93,         93,        1,   161280, 0xcc0dde40
1,     273609,     273609,     2709,    10836, 0xd6a60ead
1,     276318,     276318,     2709,    10836, 0x00000000
0,         94,         94,        1,   161280, 0xcc0dde40
1,     279027,     279027,     2709,    10836, 0x00000000
0,         95,         95,        1,   161280, 0x367f60c8
1,     281736,     281736,     2709,    10836, 0x00000000
0,         96,         96,        1,   161280, 0x367f60c8
1,     284445,     284445,     2709,    10836, 0x00000000
0,         97,         97,        1,   161280, 0x367f60c8
1,     287154,     287154,     2709,    10836, 0x00000000
0,         98,         98,        1,   161280, 0x367f60c8
1,     289863,     289863,     2709,    10836, 0x00000000
0,         99,         99,        1,   161280, 0x367f60c8
1,     292572,     292572,     2709,    10836, 0x00000000
0,        100,        100,        1,   161280, 0x367f60c8
1,     295281,     295281,     2709,    10836, 0x00000000
0,        101,        101,        1,   161280, 0x367f60c8
1,     297990,     297990,     2709,    10836, 0x00000000
0,        102,        102,        1,   161280, 0x367f60c8
1,     300699,     300699,     2709,    10836, 0x00000000
0,        103,        103,        1,   161280, 0x367f60c8
1,     303408,     303408,     2709,    10836, 0x00000000
0,        104,        104,        1,   161280, 0x367f60c8
